<mxfile host="app.diagrams.net" modified="2022-08-20T07:04:59.739Z" agent="5.0 (Macintosh; Intel Mac OS X 10_15_7) AppleWebKit/537.36 (KHTML, like Gecko) Chrome/104.0.0.0 Safari/537.36" etag="5eKJ2CZK2B8Lmnmxmukc" version="20.2.2" type="github">
  <diagram id="C5RBs43oDa-KdzZeNtuy" name="Page-1">
    <mxGraphModel dx="1482" dy="892" grid="1" gridSize="10" guides="1" tooltips="1" connect="1" arrows="1" fold="1" page="1" pageScale="1" pageWidth="3300" pageHeight="4681" math="0" shadow="0">
      <root>
        <mxCell id="WIyWlLk6GJQsqaUBKTNV-0" />
        <mxCell id="WIyWlLk6GJQsqaUBKTNV-1" parent="WIyWlLk6GJQsqaUBKTNV-0" />
        <mxCell id="OEr1kSf6Zx2oqRFbx7nF-18" value="" style="group" vertex="1" connectable="0" parent="WIyWlLk6GJQsqaUBKTNV-1">
          <mxGeometry x="320" y="190" width="995" height="995" as="geometry" />
        </mxCell>
        <mxCell id="OEr1kSf6Zx2oqRFbx7nF-17" value="" style="whiteSpace=wrap;html=1;aspect=fixed;fontSize=27;container=1;" vertex="1" parent="OEr1kSf6Zx2oqRFbx7nF-18">
          <mxGeometry width="995" height="995" as="geometry" />
        </mxCell>
        <mxCell id="OEr1kSf6Zx2oqRFbx7nF-0" value="cartsDao" style="text;html=1;align=center;verticalAlign=middle;resizable=0;points=[];autosize=1;strokeColor=none;fillColor=none;fontSize=30;" vertex="1" parent="OEr1kSf6Zx2oqRFbx7nF-18">
          <mxGeometry x="450" y="5" width="140" height="50" as="geometry" />
        </mxCell>
        <mxCell id="OEr1kSf6Zx2oqRFbx7nF-1" value="요청 : POST" style="rounded=0;whiteSpace=wrap;html=1;fontSize=30;" vertex="1" parent="OEr1kSf6Zx2oqRFbx7nF-18">
          <mxGeometry x="425" y="70" width="190" height="60" as="geometry" />
        </mxCell>
        <mxCell id="OEr1kSf6Zx2oqRFbx7nF-2" value="input : product id, token" style="text;html=1;align=center;verticalAlign=middle;resizable=0;points=[];autosize=1;strokeColor=none;fillColor=none;fontSize=30;" vertex="1" parent="OEr1kSf6Zx2oqRFbx7nF-18">
          <mxGeometry x="350" y="145" width="340" height="50" as="geometry" />
        </mxCell>
        <mxCell id="OEr1kSf6Zx2oqRFbx7nF-3" value="&lt;span style=&quot;font-size: 17px;&quot;&gt;product_id-&amp;gt;mysql table product-&amp;gt;get product *&lt;/span&gt;" style="rounded=0;whiteSpace=wrap;html=1;fontSize=30;" vertex="1" parent="OEr1kSf6Zx2oqRFbx7nF-18">
          <mxGeometry x="120" y="305" width="430" height="60" as="geometry" />
        </mxCell>
        <mxCell id="OEr1kSf6Zx2oqRFbx7nF-4" value="" style="edgeStyle=orthogonalEdgeStyle;rounded=0;orthogonalLoop=1;jettySize=auto;html=1;fontSize=30;" edge="1" parent="OEr1kSf6Zx2oqRFbx7nF-18" source="OEr1kSf6Zx2oqRFbx7nF-1" target="OEr1kSf6Zx2oqRFbx7nF-3">
          <mxGeometry relative="1" as="geometry" />
        </mxCell>
        <mxCell id="OEr1kSf6Zx2oqRFbx7nF-6" value="token-&amp;gt;const {} = user_info" style="rounded=0;whiteSpace=wrap;html=1;fontSize=17;" vertex="1" parent="OEr1kSf6Zx2oqRFbx7nF-18">
          <mxGeometry x="600" y="305" width="260" height="60" as="geometry" />
        </mxCell>
        <mxCell id="OEr1kSf6Zx2oqRFbx7nF-5" style="edgeStyle=orthogonalEdgeStyle;rounded=0;orthogonalLoop=1;jettySize=auto;html=1;fontSize=17;" edge="1" parent="OEr1kSf6Zx2oqRFbx7nF-18" source="OEr1kSf6Zx2oqRFbx7nF-1" target="OEr1kSf6Zx2oqRFbx7nF-6">
          <mxGeometry relative="1" as="geometry">
            <mxPoint x="610" y="305" as="targetPoint" />
          </mxGeometry>
        </mxCell>
        <mxCell id="OEr1kSf6Zx2oqRFbx7nF-7" value="&lt;font style=&quot;font-size: 19px;&quot;&gt;insert into product_id &amp;amp; user_id mysql table carts&lt;br&gt;&lt;/font&gt;" style="whiteSpace=wrap;html=1;fontSize=19;rounded=0;" vertex="1" parent="OEr1kSf6Zx2oqRFbx7nF-18">
          <mxGeometry x="275" y="485" width="490" height="60" as="geometry" />
        </mxCell>
        <mxCell id="OEr1kSf6Zx2oqRFbx7nF-8" value="" style="edgeStyle=orthogonalEdgeStyle;rounded=0;orthogonalLoop=1;jettySize=auto;html=1;fontSize=17;entryX=0.269;entryY=-0.083;entryDx=0;entryDy=0;entryPerimeter=0;" edge="1" parent="OEr1kSf6Zx2oqRFbx7nF-18" source="OEr1kSf6Zx2oqRFbx7nF-3" target="OEr1kSf6Zx2oqRFbx7nF-7">
          <mxGeometry relative="1" as="geometry" />
        </mxCell>
        <mxCell id="OEr1kSf6Zx2oqRFbx7nF-9" style="edgeStyle=orthogonalEdgeStyle;rounded=0;orthogonalLoop=1;jettySize=auto;html=1;fontSize=17;entryX=0.75;entryY=0;entryDx=0;entryDy=0;" edge="1" parent="OEr1kSf6Zx2oqRFbx7nF-18" source="OEr1kSf6Zx2oqRFbx7nF-6" target="OEr1kSf6Zx2oqRFbx7nF-7">
          <mxGeometry relative="1" as="geometry" />
        </mxCell>
        <mxCell id="OEr1kSf6Zx2oqRFbx7nF-10" value="select price, name from product join carts on product_id = product.id&amp;nbsp;" style="whiteSpace=wrap;html=1;fontSize=19;rounded=0;" vertex="1" parent="OEr1kSf6Zx2oqRFbx7nF-18">
          <mxGeometry x="65" y="645" width="910" height="60" as="geometry" />
        </mxCell>
        <mxCell id="OEr1kSf6Zx2oqRFbx7nF-11" value="" style="edgeStyle=orthogonalEdgeStyle;rounded=0;orthogonalLoop=1;jettySize=auto;html=1;fontSize=19;" edge="1" parent="OEr1kSf6Zx2oqRFbx7nF-18" source="OEr1kSf6Zx2oqRFbx7nF-7" target="OEr1kSf6Zx2oqRFbx7nF-10">
          <mxGeometry relative="1" as="geometry" />
        </mxCell>
        <mxCell id="OEr1kSf6Zx2oqRFbx7nF-12" value="res : product name, price" style="whiteSpace=wrap;html=1;fontSize=19;rounded=0;" vertex="1" parent="OEr1kSf6Zx2oqRFbx7nF-18">
          <mxGeometry x="240" y="785" width="560" height="60" as="geometry" />
        </mxCell>
        <mxCell id="OEr1kSf6Zx2oqRFbx7nF-13" value="" style="edgeStyle=orthogonalEdgeStyle;rounded=0;orthogonalLoop=1;jettySize=auto;html=1;fontSize=19;" edge="1" parent="OEr1kSf6Zx2oqRFbx7nF-18" source="OEr1kSf6Zx2oqRFbx7nF-10" target="OEr1kSf6Zx2oqRFbx7nF-12">
          <mxGeometry relative="1" as="geometry" />
        </mxCell>
        <mxCell id="OEr1kSf6Zx2oqRFbx7nF-15" value="output : product name, price" style="text;html=1;align=center;verticalAlign=middle;resizable=0;points=[];autosize=1;strokeColor=none;fillColor=none;fontSize=27;" vertex="1" parent="OEr1kSf6Zx2oqRFbx7nF-18">
          <mxGeometry x="340" y="875" width="360" height="50" as="geometry" />
        </mxCell>
      </root>
    </mxGraphModel>
  </diagram>
</mxfile>
